<?xml version="1.0" standalone="no"?><!DOCTYPE svg PUBLIC "-//W3C//DTD SVG 1.1//EN" "http://www.w3.org/Graphics/SVG/1.1/DTD/svg11.dtd"><svg t="1731406343833" class="icon" viewBox="0 0 1052 1024" version="1.1" xmlns="http://www.w3.org/2000/svg" p-id="1842" xmlns:xlink="http://www.w3.org/1999/xlink" width="205.46875" height="200"><path d="M1159.82803502 629.73570857c-77.19776753-134.89790872-32.72883343-325.13661365 111.85182668-446.47300688 134.36941552-112.72006604 312.22627789-129.95272129 432.59062089-52.11321269a98.94149093 98.94149093 0 0 1 8.29545749-8.06895923c29.70887173-24.87693383 70.83697357-24.76368512 91.82570636 0.32087055s14.00507172 65.56147861-15.5999891 90.54222336l-1.61379219 1.29292081c84.93641922 135.33202798 41.87365466 331.70502942-106.16108643 455.94813646C1543.42921666 786.70764907 1359.96655098 801.99620379 1239.60220717 717.37121814c-0.86823936 0.86823936-1.8308518 1.61379217-2.68965335 2.36878279-29.71830954 24.86749603-70.84641138 24.76368512-91.83514417-0.32087136-20.76223618-24.76368512-14.15607001-64.81592496 14.75062537-89.65510923z m0 1e-8" fill="#FFFFFF" p-id="1843"></path><path d="M107.43907266 782.891439C13.77248166 619.17534 67.71839066 388.296011 243.19721766 241.038569 406.26046866 104.238157 622.11282566 83.335549 768.20201366 177.803884a116.585013 116.585013 0 0 1 10.056158-9.804182c36.055567-30.17993 85.981304-30.053942 111.453852 0.400872s16.985517 79.567353-18.944062 109.873271l-1.969999 1.569127c103.104262 164.242959 50.830562 402.589959-128.874601 553.363622-166.934528 140.144829-389.578802 158.745287-535.667989 56.05335-1.042267 1.042267-2.210522 1.958546-3.264243 2.863371-36.055567 30.191384-85.96985 30.053942-111.453852-0.389418-25.197665-30.053942-17.111505-78.651074 17.901795-108.808098z m0 0" fill="#FCD741" p-id="1844"></path><path d="M421.28743966 973.832469c-79.567353 0-154.15244-20.925515-215.966893-60.543116-19.058597 13.400576-41.530333 20.742259-63.64701 20.74226-27.110396 0-50.910736-10.594473-67.014334-29.847779-15.908889-18.955516-22.311387-43.832483-18.027784-70.049508a108.097981 108.097981 0 0 1 26.766792-54.873641C41.38683166 697.792054 31.46811466 599.166104 55.53188366 501.101374c25.472548-104.009087 87.699326-201.650038 175.238304-274.883613 96.678858-81.147933 214.581021-125.827974 331.967778-125.827975 73.783343 0 143.890118 18.325574 203.024455 53.098352l0.160349-0.137442c20.925515-17.512377 46.466784-27.144757 71.939333-27.144757 27.236385 0.137442 50.887829 10.766275 66.888346 29.927954s22.437375 44.267715 17.878888 70.74817a110.113794 110.113794 0 0 1-28.839872 56.648931c97.663857 172.867433 37.429985 414.913908-141.072562 564.656757A549.160193 549.160193 0 0 1 614.19846866 933.458938a505.969105 505.969105 0 0 1-147.749942 38.243183c-15.542378 1.374418-30.741151 2.130348-45.161087 2.130348zM215.61722866 873.351055c57.462129 40.362077 128.611171 61.688464 205.761838 61.688464 13.583832 0 27.41964-0.675756 41.129461-2.03872 93.758219-9.162787 187.91731-49.879922 265.136699-114.660827 83.221014-69.76317 141.46198-162.490576 163.979529-261.139433 22.196852-96.804846 8.303776-191.639693-39.113647-267.015071l-9.162788-14.706273 13.629646-10.869356c0.962093-0.824651 1.328604-1.145348 1.695116-1.408779 13.744181-11.533658 22.906968-26.915687 25.724525-43.122367 2.622848-15.061331-0.675756-29.000221-9.277322-39.262543s-21.761619-15.954703-37.006207-15.954703c-16.676273 0-33.306731 6.391044-47.131086 17.970517a71.641542 71.641542 0 0 0-8.08616 7.845636l-11.132786 12.346856-13.858715-9.002439c-55.572304-35.883765-123.411289-54.850734-196.140912-54.850734a423.985067 423.985067 0 0 0-47.291435 2.680115c-92.956475 10.640287-182.373824 50.028818-258.5624 113.927805-81.182294 68.159683-138.862039 158.504764-162.410401 254.507865-23.090224 94.021649-12.083426 187.344636 30.993127 262.811642l7.948718 13.824355-12.083426 10.525752c-26.950048 23.284933-33.982487 59.947535-15.691273 81.709154 8.658834 10.308136 21.853247 16.034877 37.155102 16.034878 16.401389 0 33.089115-6.402498 46.959284-18.039238l2.817557-2.451045 11.190054-10.308136z" fill="#FBAC1D" p-id="1845"></path><path d="M656.29527546 220.8423478a223.58096767 223.58096767 0 0 1-26.00941938-6.29473178c-61.07872302-18.72376172-109.05836242-61.92808676-142.50443692-128.45217865a14.55243969 14.55243969 0 0 1 5.95498728-19.38437843C558.79770362 30.51870757 622.68876569 21.76081824 683.76748871 40.48458077s109.04892545 61.92808676 142.50443692 128.46161481a14.57131448 14.57131448 0 0 1-5.96442425 19.38437841c-55.83153983 31.0867295-110.90808902 41.94915381-164.01222592 32.51177381z" fill="#60B71C" p-id="1846"></path><path d="M751.59393839 181.72440864a105.46272097 105.46272097 0 0 1-13.21233233-3.14264739c-15.65661346-4.65262867-38.83481818-15.09980767-72.9037598-33.03083001a16.04354617 16.04354617 0 0 1-7.83302563-9.43738002 15.78873697 15.78873697 0 0 1 1.16079812-12.16478293 15.98692181 15.98692181 0 0 1 16.98728385-8.30489446 15.76042437 15.76042437 0 0 1 4.65262784 1.61379217c31.35097651 16.43991587 53.94406366 26.77384698 67.14695818 30.680922a85.228978 85.228978 0 0 0 9.56950351 2.2366593c13.49545331 2.40653156 29.86930783 2.42540634 48.64969392 0.06606135a16.04354617 16.04354617 0 0 1 4.06751028 31.80397055c-21.96078306 2.76515249-41.54334631 2.66134075-58.28525794-0.32087055z" fill="#167203" p-id="1847"></path><path d="M2312.4880781 602.82030111c0 140.14509192 113.60717935 253.76170908 253.76170907 253.76170825s253.75227127-113.61661716 253.75227127-253.76170825-113.60717935-253.76170908-253.75227127-253.76170908-253.76170908 113.61661716-253.76170907 253.76170908z m0 0" fill="#FCD741" p-id="1848"></path><path d="M2566.24978717 872.5406194a269.64481914 269.64481914 0 1 1 190.73888553-78.97199579 268.02158999 268.02158999 0 0 1-190.73888553 78.97199579z m0-507.41016943c-131.06633203 0-237.68985114 106.64239307-237.68985113 237.68985114s106.64239307 237.68041333 237.68985113 237.68041332 237.68041333-106.64239307 237.68041333-237.68041332-106.62351828-237.68985114-237.68041333-237.68985114z" fill="#FBAC1D" p-id="1849"></path><path d="M2371.91525937 604.009411c0 107.32188455 87.00320544 194.32508999 194.3345278 194.32508999s194.32508999-87.00320544 194.32509-194.32508999-87.00320544-194.3345278-194.32509-194.3345278-194.3345278 87.05039282-194.3345278 194.3345278z m0 0" fill="#FFE22A" p-id="1850"></path><path d="M2566.24978717 810.4992831c-113.90917593 0-206.49930991-92.5901348-206.49931073-206.4898721S2452.35004822 397.51010027 2566.24978717 397.51010027s206.48987292 92.60900959 206.4898721 206.49931073-92.5901348 206.48987292-206.4898721 206.4898721z m0-388.7634287c-100.4514722 0-182.27355578 81.7088357-182.2735566 182.2735566s81.7088357 182.26411881 182.2735566 182.26411799 182.26411881-81.7088357 182.26411799-182.26411799-81.7088357-182.27355578-182.26411799-182.2735566z m0 0" fill="#FFFFFF" p-id="1851"></path><path d="M2374.50110181 592.5996187h375.6360325v24.22575412H2374.50110181z" fill="#FFFFFF" p-id="1852"></path><path d="M2425.27420548 730.0078699l265.60562063-265.60562065 17.12884433 17.11940735-265.61505761 265.61505844z m0 0" fill="#FFFFFF" p-id="1853"></path><path d="M2425.27420548 481.5216566l17.11940735-17.11940735 265.61505761 265.60562064-17.12884433 17.12884516z m0 0" fill="#FFFFFF" p-id="1854"></path><path d="M2553.54707324 412.26072564h24.22575413v375.62659551H2553.54707324zM2064.35104712 527.51000893c-10.10743369-3.18039697-16.70416287-11.89109894-15.33574209-20.24317997 15.09980767-91.86345593 63.84387551-175.8372627 133.72767361-230.38531868 7.71977692-5.86061334 20.55461352-4.80362613 28.79344583 2.34990719s8.82394986 17.78002404 1.30235861 23.81994745c-64.27799478 50.15967434-109.16217334 127.81987372-123.17668286 213.0677265-0.77386542 4.71869-3.97313718 8.60689023-8.80507508 10.77748819a23.50851307 23.50851307 0 0 1-16.50597802 0.61342932z m0 0" fill="#d81e06" p-id="1855"></path><path d="M364.95642966 300.187305a28.461908 27.957954 19.45 1 0 18.61911-52.724923 28.461908 27.957954 19.45 1 0-18.61911 52.724923Z" fill="#FFFFFF" p-id="1856"></path></svg>